<?xml version="1.0" encoding="UTF-8" standalone="no"?><!-- Generator: Gravit.io --><svg xmlns="http://www.w3.org/2000/svg" xmlns:xlink="http://www.w3.org/1999/xlink" style="isolation:isolate" viewBox="102.256 245.229 169.405 118.903" width="169.405pt" height="118.903pt"><defs><clipPath id="_clipPath_nIk7lv65hzihG6mXQJLiolaKoexivHDk"><rect x="102.256" y="245.229" width="169.405" height="118.903"/></clipPath></defs><g clip-path="url(#_clipPath_nIk7lv65hzihG6mXQJLiolaKoexivHDk)"><path d=" M 115.297 286.454 C 115.297 286.454 115.579 286.695 116.098 287.083 C 116.612 287.478 117.339 288.058 118.33 288.784 C 118.82 289.146 119.337 289.567 119.935 289.993 C 120.534 290.417 121.183 290.871 121.857 291.376 C 123.196 292.397 124.834 293.389 126.504 294.609 C 127.375 295.173 128.294 295.74 129.22 296.366 C 130.156 296.978 131.081 297.683 132.123 298.258 C 133.147 298.865 134.201 299.489 135.277 300.127 C 136.344 300.787 137.491 301.353 138.68 301.883 C 141.085 302.984 143.57 304.122 146.096 305.277 C 147.37 305.951 148.687 306.632 149.946 307.359 L 151.796 308.504 C 152.417 308.879 153.03 309.269 153.605 309.713 C 154.768 310.583 155.977 311.386 157.055 312.35 L 158.701 313.745 C 159.243 314.213 159.744 314.726 160.269 315.205 C 160.784 315.693 161.297 316.181 161.808 316.664 C 162.29 317.18 162.774 317.685 163.262 318.18 C 164.253 319.156 165.153 320.194 166.055 321.201 C 167.845 323.223 169.567 325.204 171.058 327.218 C 172.557 329.224 173.788 331.275 174.696 333.285 C 175.202 334.264 175.521 335.282 175.886 336.219 C 176.052 336.694 176.23 337.151 176.374 337.605 C 176.494 338.069 176.612 338.52 176.725 338.955 C 176.918 339.836 177.19 340.633 177.271 341.415 C 177.371 342.188 177.462 342.898 177.545 343.541 C 177.645 344.178 177.624 344.762 177.625 345.265 C 177.625 345.766 177.625 346.192 177.625 346.539 C 177.608 347.228 177.6 347.595 177.6 347.595 C 177.587 348.137 177.137 348.565 176.595 348.553 C 176.116 348.542 175.726 348.19 175.649 347.734 L 175.63 347.616 C 175.63 347.616 175.573 347.277 175.465 346.641 C 175.42 346.324 175.364 345.934 175.297 345.475 C 175.233 345.017 175.173 344.491 175.004 343.914 C 174.724 342.754 174.452 341.343 173.882 339.78 C 173.76 339.386 173.634 338.979 173.504 338.559 C 173.352 338.146 173.165 337.73 172.991 337.3 C 172.63 336.442 172.332 335.51 171.838 334.607 C 170.974 332.753 169.958 330.774 168.793 328.705 C 167.595 326.659 166.234 324.519 164.498 322.566 C 163.63 321.592 162.757 320.591 161.753 319.693 C 161.268 319.228 160.774 318.767 160.272 318.311 C 159.746 317.88 159.218 317.448 158.688 317.014 C 158.152 316.587 157.634 316.137 157.074 315.734 L 155.384 314.537 C 154.279 313.708 153.088 312.992 151.93 312.238 C 150.77 311.485 149.549 310.834 148.372 310.125 C 147.17 309.475 145.971 308.894 144.767 308.29 C 142.198 307.172 139.669 306.072 137.223 305.008 C 136.6 304.74 135.982 304.475 135.37 304.212 C 134.753 303.957 134.185 303.619 133.6 303.331 C 132.433 302.741 131.291 302.165 130.18 301.604 C 129.044 301.079 128.055 300.37 127.041 299.78 C 126.047 299.157 125.082 298.56 124.195 297.929 C 123.324 297.273 122.508 296.62 121.731 296.003 C 120.945 295.399 120.225 294.793 119.587 294.174 C 118.279 292.978 117.177 291.899 116.342 290.928 C 115.481 290.003 114.855 289.181 114.436 288.63 C 114.219 288.355 114.083 288.139 113.985 287.996 C 113.889 287.853 113.838 287.778 113.838 287.778 L 113.828 287.763 C 113.521 287.308 113.641 286.691 114.096 286.385 C 114.474 286.129 114.966 286.17 115.297 286.454 L 115.297 286.454 L 115.297 286.454 Z  M 214.563 352.325 C 214.563 352.325 214.89 352.426 215.523 352.621 C 215.682 352.668 215.856 352.733 216.056 352.781 C 216.26 352.815 216.483 352.854 216.727 352.895 C 216.969 352.937 217.23 352.981 217.511 353.029 C 217.798 353.045 218.104 353.063 218.429 353.08 C 221.021 353.255 224.957 352.593 229.544 350.563 C 234.127 348.543 239.385 345.31 244.842 340.893 C 247.57 338.684 250.34 336.172 253.111 333.396 C 255.854 330.6 258.628 327.527 261.045 324.071 C 262.235 322.365 263.412 320.496 264.182 318.682 L 264.47 318.031 L 264.725 317.208 L 264.853 316.795 C 264.817 316.944 264.854 316.782 264.852 316.791 L 264.871 316.697 L 264.91 316.508 C 264.959 316.258 265.028 316 265.063 315.753 C 265.229 314.768 265.244 313.754 264.987 313.111 C 264.887 312.758 264.702 312.572 264.49 312.379 C 264.279 312.191 263.938 312.069 263.522 312.014 C 262.69 311.883 261.617 312.091 260.609 312.445 C 259.594 312.816 258.597 313.361 257.701 314.019 C 256.834 314.68 256.001 315.506 255.627 316.322 C 255.567 316.424 255.537 316.52 255.514 316.612 C 255.479 316.708 255.453 316.799 255.455 316.876 L 255.436 316.996 C 255.432 317.031 255.445 317.021 255.44 317.034 C 255.438 317.042 255.43 317.05 255.415 317.063 C 255.416 317.099 255.457 317.201 255.477 317.269 L 255.549 317.494 C 255.455 317.253 255.534 317.429 255.517 317.377 L 255.525 317.384 C 255.529 317.387 255.524 317.407 255.524 317.408 C 255.528 317.395 255.524 317.385 255.515 317.384 C 255.477 317.378 255.516 317.386 255.656 317.389 C 255.961 317.368 256.469 317.174 256.942 316.928 C 257.426 316.652 257.914 316.338 258.39 315.972 C 260.302 314.515 262.024 312.616 263.529 310.574 C 265.033 308.527 266.369 306.301 267.322 303.932 C 268.291 301.578 268.892 299.047 268.721 296.635 C 268.683 296.346 268.681 296.018 268.618 295.759 C 268.555 295.484 268.532 295.247 268.45 294.941 L 268.166 294.038 L 267.812 293.227 C 267.294 292.186 266.574 291.44 265.769 291.146 C 264.957 290.85 263.908 290.989 262.846 291.437 C 261.789 291.907 260.749 292.619 259.816 293.47 C 258.89 294.327 258.041 295.307 257.362 296.35 C 256.697 297.363 256.173 298.59 256.167 299.33 C 256.156 299.425 256.162 299.497 256.179 299.541 C 256.184 299.559 256.183 299.617 256.182 299.605 C 256.181 299.577 256.167 299.549 256.144 299.528 C 256.014 299.414 256.219 299.679 256.302 299.794 C 256.257 299.742 256.512 300.064 256.222 299.705 C 256.222 299.697 256.22 299.69 256.216 299.686 C 256.208 299.676 256.193 299.673 256.178 299.679 C 256.115 299.603 255.996 299.652 256.095 299.628 C 256.129 299.627 256.18 299.633 256.275 299.587 C 256.355 299.563 256.441 299.542 256.553 299.474 C 256.969 299.284 257.453 298.899 257.919 298.491 C 258.394 298.09 258.842 297.599 259.286 297.106 C 262.812 293.051 265.488 287.676 266.139 282.131 C 266.313 280.748 266.342 279.356 266.218 277.995 C 266.202 277.651 266.141 277.317 266.081 276.982 C 266.033 276.64 265.961 276.319 265.876 276.015 C 265.806 275.709 265.725 275.392 265.59 275.034 L 265.412 274.516 C 265.39 274.429 265.288 274.236 265.23 274.102 C 264.705 272.925 263.963 271.852 263.037 271.533 C 262.154 271.144 261.014 271.394 259.921 271.984 C 257.729 273.204 255.805 275.368 254.434 277.667 C 253.762 278.824 253.151 280.048 252.883 281.229 C 252.746 281.806 252.678 282.396 252.759 282.782 C 252.776 282.85 252.784 282.837 252.762 282.882 C 252.797 282.984 252.918 283.188 252.991 283.336 L 252.896 283.173 C 252.888 283.16 252.887 283.174 252.866 283.145 C 252.82 283.091 252.778 283.075 252.675 283.012 C 252.483 282.922 252.214 282.922 252.146 282.95 C 251.995 283.007 252.2 282.915 252.353 282.742 C 252.521 282.577 252.71 282.342 252.89 282.094 C 253.253 281.592 253.598 281.014 253.919 280.417 C 254.563 279.216 255.132 277.933 255.648 276.629 C 256.681 274.016 257.522 271.31 258.187 268.585 C 258.854 265.863 259.338 263.104 259.503 260.38 C 259.673 257.687 259.536 254.918 258.711 252.732 C 258.508 252.193 258.26 251.704 257.971 251.299 C 257.899 251.211 257.815 251.075 257.762 251.028 C 257.687 250.953 257.693 250.926 257.533 250.779 L 257.344 250.596 C 257.255 250.51 257.358 250.606 257.317 250.574 L 257.232 250.507 L 256.897 250.237 C 255.986 249.529 255.145 249.166 254.504 249.247 C 253.854 249.264 253.031 249.809 252.22 250.623 C 251.403 251.423 250.673 252.48 249.956 253.554 C 247.124 257.951 244.805 262.939 242.016 267.512 C 239.151 272.236 235.352 275.984 231.585 279.338 C 229.701 281.031 227.794 282.614 225.973 284.233 C 224.15 285.848 222.381 287.453 220.698 289.08 C 217.324 292.313 214.326 295.721 211.898 299.19 C 209.688 302.686 208.381 306.64 207.545 310.439 C 206.704 314.253 206.251 317.964 206.015 321.46 C 205.6 328.458 206.012 334.631 207.072 339.541 C 208.097 344.45 209.793 348.11 211.53 350.018 C 211.729 350.275 211.936 350.493 212.147 350.676 C 212.352 350.867 212.542 351.046 212.718 351.211 C 213.098 351.465 213.369 351.701 213.659 351.87 C 214.292 352.187 214.619 352.351 214.619 352.351 L 214.563 352.325 L 214.563 352.325 L 214.563 352.325 Z  M 184.325 358.242 C 184.325 358.242 184.566 357.968 185.035 357.437 C 185.241 357.172 185.403 356.852 185.66 356.474 C 185.762 356.254 185.871 356.018 185.988 355.764 C 186.117 355.515 186.227 355.234 186.315 354.922 C 187.209 352.503 187.41 348.474 186.52 343.538 C 185.662 338.589 183.731 332.711 180.723 326.379 C 179.193 323.227 177.382 319.956 175.173 316.735 C 172.974 313.526 170.281 310.351 166.921 307.939 C 163.37 305.632 159.313 303.597 154.973 301.864 C 152.803 300.986 150.562 300.16 148.267 299.348 C 145.972 298.529 143.61 297.775 141.229 296.912 C 136.479 295.215 131.552 293.165 127.125 289.858 C 122.827 286.665 118.806 282.909 114.533 279.894 C 113.465 279.168 112.392 278.462 111.335 278.025 C 110.277 277.575 109.312 277.379 108.702 277.606 C 108.078 277.771 107.433 278.426 106.854 279.423 L 106.645 279.799 L 106.591 279.893 C 106.565 279.938 106.625 279.811 106.575 279.923 L 106.468 280.163 C 106.374 280.359 106.392 280.382 106.35 280.48 C 106.317 280.544 106.29 280.701 106.257 280.809 C 106.141 281.293 106.094 281.84 106.109 282.416 C 106.163 284.751 107.073 287.369 108.241 289.803 C 109.416 292.266 110.897 294.643 112.538 296.916 C 114.174 299.192 115.969 301.386 117.905 303.422 C 118.873 304.437 119.882 305.412 120.929 306.285 C 121.451 306.718 121.987 307.124 122.512 307.454 C 122.771 307.616 123.034 307.765 123.253 307.854 C 123.458 307.957 123.683 307.965 123.521 307.969 C 123.446 307.968 123.196 308.07 123.053 308.226 C 122.981 308.323 122.948 308.353 122.926 308.42 C 122.917 308.453 122.912 308.441 122.909 308.456 L 122.882 308.643 C 122.895 308.479 122.931 308.242 122.924 308.137 C 122.887 308.103 122.899 308.112 122.889 308.042 C 122.819 307.653 122.535 307.132 122.193 306.649 C 121.5 305.654 120.476 304.749 119.419 303.927 C 117.286 302.311 114.691 301.025 112.202 300.716 C 110.967 300.578 109.816 300.773 109.144 301.466 C 108.405 302.108 108.12 303.382 108.074 304.67 C 108.071 304.816 108.049 305.032 108.062 305.122 L 108.091 305.669 C 108.1 306.051 108.144 306.376 108.193 306.685 C 108.229 307 108.281 307.324 108.365 307.66 C 108.436 307.992 108.504 308.325 108.619 308.649 C 109.014 309.958 109.563 311.237 110.242 312.454 C 112.924 317.351 117.42 321.331 122.208 323.769 C 122.805 324.06 123.404 324.347 123.995 324.541 C 124.58 324.744 125.173 324.92 125.63 324.938 C 125.758 324.961 125.846 324.947 125.93 324.94 C 126.035 324.947 126.08 324.922 126.112 324.91 C 126.212 324.896 126.083 324.895 126.054 324.988 C 126.037 324.989 126.025 324.998 126.021 325.01 C 126.02 325.016 126.02 325.023 126.022 325.03 C 125.889 325.47 126.004 325.077 125.983 325.142 C 126.016 325.003 126.106 324.683 126.029 324.837 C 126.015 324.865 126.013 324.896 126.022 324.922 C 126.026 324.934 126.004 324.88 126 324.861 C 126 324.814 125.979 324.745 125.933 324.661 C 125.65 323.978 124.704 323.037 123.708 322.347 C 122.687 321.634 121.534 321.043 120.353 320.596 C 119.17 320.157 117.938 319.887 116.782 319.847 C 115.629 319.83 114.605 320.094 113.964 320.672 C 113.327 321.248 112.939 322.209 112.849 323.368 L 112.824 324.252 L 112.899 325.195 C 112.938 325.511 113.006 325.739 113.05 326.017 C 113.089 326.28 113.21 326.585 113.284 326.868 C 114.029 329.168 115.534 331.289 117.314 333.108 C 119.087 334.947 121.159 336.511 123.321 337.846 C 125.482 339.174 127.79 340.289 130.109 340.922 C 130.687 341.084 131.257 341.192 131.81 341.267 C 132.34 341.316 132.884 341.308 133.175 341.212 C 133.304 341.157 133.337 341.135 133.304 341.154 C 133.296 341.159 133.295 341.17 133.304 341.181 C 133.304 341.181 133.291 341.163 133.294 341.159 L 133.3 341.148 C 133.303 341.204 133.31 341.011 133.313 341.27 L 133.296 341.033 C 133.289 340.964 133.289 340.854 133.275 340.818 C 133.258 340.813 133.247 340.809 133.242 340.802 C 133.232 340.792 133.249 340.796 133.232 340.766 L 133.169 340.661 C 133.142 340.59 133.085 340.515 133.016 340.439 C 132.96 340.362 132.896 340.284 132.803 340.213 C 132.15 339.596 131.068 339.142 130.016 338.854 C 128.939 338.581 127.812 338.448 126.73 338.485 C 125.664 338.534 124.59 338.744 123.868 339.177 C 123.503 339.385 123.233 339.626 123.107 339.879 C 122.983 340.137 122.882 340.379 122.921 340.743 C 122.924 341.437 123.318 342.37 123.842 343.222 C 123.966 343.438 124.127 343.65 124.266 343.864 L 124.374 344.024 L 124.427 344.104 C 124.421 344.097 124.516 344.233 124.427 344.108 L 124.7 344.443 L 125.245 345.111 L 125.756 345.606 C 127.149 347 128.941 348.291 130.685 349.427 C 134.221 351.726 137.944 353.534 141.534 355.098 C 145.144 356.633 148.654 357.923 152.011 358.948 C 158.725 360.998 164.812 362.024 169.818 362.179 C 174.832 362.342 178.729 361.479 181.067 360.347 C 181.361 360.208 181.639 360.078 181.898 359.956 C 182.141 359.806 182.366 359.666 182.575 359.536 C 182.785 359.407 182.978 359.289 183.154 359.181 C 183.321 359.061 183.458 358.936 183.588 358.833 C 184.102 358.414 184.367 358.198 184.367 358.198 L 184.325 358.242 L 184.325 358.242 L 184.325 358.242 L 184.325 358.242 Z  M 213.95 353.688 C 213.95 353.688 213.624 353.524 212.991 353.206 C 212.669 353.022 212.25 352.705 211.772 352.364 C 211.377 351.969 210.842 351.57 210.404 350.993 C 208.449 348.813 206.639 344.986 205.355 339.94 C 204.72 337.412 204.221 334.571 203.892 331.457 C 203.563 328.344 203.407 324.951 203.58 321.333 C 203.738 317.718 204.111 313.86 205.052 309.875 C 205.503 307.881 206.07 305.851 206.842 303.821 C 207.607 301.793 208.55 299.749 209.865 297.828 C 212.536 294.161 215.7 290.76 219.199 287.504 C 222.689 284.243 226.509 281.15 230.214 277.808 C 232.058 276.132 233.914 274.423 235.588 272.539 C 237.264 270.653 238.746 268.601 239.91 266.349 C 241.08 264.03 242.104 261.594 243.173 259.116 C 244.248 256.641 245.296 254.094 246.728 251.585 C 247.44 250.324 248.256 249.081 249.354 247.883 C 249.885 247.281 250.55 246.711 251.331 246.221 C 252.1 245.724 253.097 245.344 254.146 245.253 C 255.189 245.16 256.273 245.347 257.131 245.734 C 257.586 245.906 257.964 246.143 258.36 246.364 C 258.705 246.616 259.094 246.856 259.393 247.132 L 259.861 247.539 L 259.979 247.642 C 260.007 247.664 260.17 247.825 260.144 247.801 L 260.326 247.991 C 260.424 248.083 260.638 248.341 260.793 248.531 C 260.975 248.745 261.07 248.915 261.209 249.109 C 261.707 249.869 262.061 250.666 262.326 251.456 C 263.332 254.641 263.192 257.69 262.958 260.655 C 262.656 263.619 262.105 266.52 261.385 269.382 C 260.655 272.242 259.749 275.06 258.624 277.827 C 258.059 279.211 257.435 280.58 256.69 281.933 C 256.314 282.609 255.909 283.281 255.413 283.953 C 255.16 284.29 254.894 284.625 254.541 284.968 C 254.175 285.298 253.803 285.69 252.948 285.954 C 252.76 286.019 252.45 286.043 252.196 286.038 C 251.904 286.011 251.611 285.952 251.358 285.821 C 251.079 285.697 250.909 285.546 250.72 285.381 C 250.626 285.297 250.58 285.229 250.51 285.148 C 250.411 285.008 250.466 285.131 250.247 284.77 C 250.161 284.592 250.089 284.481 249.99 284.247 C 249.878 283.939 249.766 283.58 249.718 283.291 C 249.55 282.23 249.715 281.345 249.91 280.51 C 250.333 278.85 251.051 277.431 251.893 276.099 C 252.736 274.771 253.715 273.549 254.832 272.438 C 255.958 271.339 257.188 270.303 258.721 269.583 C 259.467 269.208 260.321 268.942 261.231 268.83 C 262.137 268.705 263.16 268.846 264.037 269.261 C 264.496 269.44 264.864 269.746 265.244 270.023 C 265.563 270.345 265.924 270.652 266.159 271.015 L 266.543 271.544 L 266.848 272.094 C 267.067 272.459 267.211 272.835 267.363 273.209 C 267.44 273.414 267.517 273.544 267.593 273.81 L 267.752 274.334 C 267.863 274.665 267.957 275.057 268.04 275.465 C 268.135 275.868 268.207 276.263 268.248 276.645 C 268.299 277.032 268.357 277.418 268.377 277.804 C 268.506 279.348 268.457 280.889 268.258 282.394 C 267.844 285.403 267.011 288.299 265.936 291.088 C 264.869 293.887 263.543 296.584 261.729 299.081 C 261.261 299.699 260.772 300.306 260.193 300.881 C 259.623 301.462 258.996 302.012 258.14 302.486 C 257.945 302.608 257.696 302.715 257.439 302.812 C 257.206 302.918 256.907 302.994 256.586 303.044 C 255.978 303.169 255.129 303.059 254.428 302.671 C 254.271 302.565 254.117 302.451 253.97 302.331 L 253.753 302.145 C 253.387 301.737 253.605 301.971 253.504 301.852 C 253.386 301.673 253.33 301.678 253.1 301.213 C 253.008 301.027 252.926 300.835 252.857 300.642 C 252.799 300.461 252.786 300.339 252.753 300.183 C 252.686 299.877 252.666 299.595 252.675 299.332 C 252.741 297.189 253.619 295.785 254.471 294.438 C 255.361 293.116 256.419 291.973 257.592 290.949 C 258.774 289.938 260.098 289.059 261.624 288.436 C 262.406 288.151 263.224 287.906 264.123 287.841 C 265.018 287.786 265.975 287.862 266.872 288.219 C 268.691 288.937 269.876 290.479 270.539 291.907 L 270.988 293.005 L 271.304 294.079 C 271.394 294.438 271.463 294.885 271.535 295.283 C 271.613 295.698 271.608 296.062 271.646 296.452 C 271.781 299.533 270.971 302.41 269.845 304.994 C 268.716 307.594 267.243 309.955 265.584 312.124 C 263.906 314.281 262.074 316.274 259.89 317.958 C 259.342 318.377 258.749 318.763 258.117 319.117 C 257.451 319.444 256.769 319.782 255.798 319.865 C 255.526 319.855 255.294 319.888 254.993 319.808 C 254.693 319.717 254.396 319.657 254.128 319.438 C 253.992 319.341 253.86 319.236 253.738 319.127 C 253.632 319.014 253.554 318.889 253.467 318.763 L 253.346 318.571 C 253.288 318.451 253.313 318.567 253.19 318.252 L 253.118 318.026 C 253.094 317.941 253.071 317.897 253.045 317.778 C 253.019 317.633 252.997 317.484 252.982 317.335 C 252.971 317.19 252.953 317.022 252.962 316.9 L 253.001 316.552 C 253.022 316.312 253.078 316.099 253.146 315.896 C 253.207 315.685 253.276 315.483 253.366 315.307 C 253.695 314.557 254.142 313.959 254.617 313.429 C 255.088 312.887 255.607 312.431 256.142 312.003 C 257.216 311.16 258.367 310.457 259.624 309.937 C 260.887 309.437 262.228 309.006 263.803 309.114 C 264.574 309.166 265.435 309.365 266.195 309.88 C 266.941 310.373 267.576 311.124 267.877 311.891 C 268.551 313.443 268.485 314.878 268.372 316.175 C 268.344 316.505 268.282 316.814 268.238 317.135 L 268.201 317.373 L 268.183 317.491 C 268.166 317.571 268.193 317.48 268.141 317.7 L 268.036 318.12 L 267.828 318.956 L 267.495 319.905 C 266.564 322.33 265.354 324.289 264.037 326.172 C 262.733 328.044 261.312 329.74 259.874 331.337 C 258.446 332.946 256.97 334.431 255.486 335.827 C 252.527 338.627 249.523 341.051 246.599 343.183 C 240.748 347.442 235.166 350.499 230.28 352.361 C 225.418 354.278 221.207 354.881 218.335 354.654 C 217.977 354.627 217.639 354.601 217.323 354.576 C 217.008 354.517 216.715 354.461 216.443 354.41 C 216.172 354.357 215.922 354.31 215.694 354.266 C 215.469 354.207 215.27 354.131 215.09 354.075 C 214.375 353.837 214.006 353.714 214.006 353.714 L 213.95 353.688 L 213.95 353.688 L 213.95 353.688 Z  M 185.418 359.265 L 185.404 359.276 C 185.404 359.276 185.108 359.528 184.535 360.018 C 184.389 360.137 184.233 360.282 184.046 360.421 C 183.852 360.547 183.638 360.686 183.406 360.836 C 183.173 360.985 182.922 361.146 182.653 361.319 C 182.369 361.46 182.065 361.611 181.743 361.771 C 179.166 363.057 175.036 364.077 169.81 364.123 C 164.583 364.228 158.262 363.486 151.241 361.73 C 147.73 360.85 144.037 359.729 140.244 358.242 C 138.345 357.504 136.42 356.681 134.493 355.724 C 132.562 354.783 130.607 353.743 128.698 352.496 C 126.771 351.244 124.915 349.882 123.143 347.982 L 122.479 347.228 L 121.972 346.53 L 121.718 346.181 C 121.586 345.996 121.646 346.07 121.601 346.002 L 121.539 345.899 L 121.416 345.692 C 121.254 345.412 121.082 345.148 120.931 344.854 C 120.34 343.693 119.742 342.388 119.785 340.695 C 119.777 339.872 120.083 338.938 120.59 338.201 C 121.103 337.438 121.825 336.932 122.521 336.594 C 123.941 335.903 125.346 335.8 126.704 335.791 C 128.064 335.801 129.395 336.022 130.707 336.4 C 131.362 336.598 132.015 336.826 132.655 337.151 C 133.294 337.465 133.931 337.852 134.518 338.424 C 134.667 338.554 134.807 338.715 134.943 338.888 C 135.083 339.05 135.213 339.228 135.323 339.441 L 135.49 339.75 C 135.544 339.86 135.591 340.022 135.633 340.161 C 135.676 340.305 135.712 340.451 135.742 340.596 C 135.762 340.715 135.757 340.765 135.767 340.853 L 135.784 341.089 C 135.789 341.427 135.769 341.311 135.76 341.443 L 135.719 341.666 C 135.686 341.815 135.661 341.961 135.604 342.105 C 135.531 342.253 135.449 342.399 135.359 342.54 C 135.192 342.844 134.939 343.01 134.695 343.206 C 134.446 343.394 134.219 343.451 133.971 343.562 C 133.04 343.849 132.28 343.791 131.54 343.736 C 130.822 343.645 130.128 343.51 129.463 343.326 C 126.806 342.584 124.361 341.423 121.997 340.052 C 119.646 338.663 117.396 337.025 115.375 335.039 C 113.362 333.065 111.532 330.702 110.503 327.795 C 110.392 327.419 110.25 327.083 110.167 326.67 C 110.085 326.273 109.981 325.833 109.931 325.467 L 109.821 324.353 L 109.826 323.166 C 109.905 321.593 110.425 319.719 111.843 318.372 C 112.542 317.705 113.401 317.276 114.25 316.992 C 115.109 316.715 115.958 316.637 116.79 316.606 C 118.438 316.612 119.995 316.931 121.47 317.426 C 122.942 317.935 124.351 318.599 125.671 319.49 C 126.966 320.42 128.306 321.393 129.171 323.354 C 129.278 323.595 129.365 323.863 129.417 324.172 C 129.445 324.328 129.479 324.447 129.493 324.636 C 129.501 324.841 129.499 325.05 129.483 325.256 C 129.443 325.773 129.39 325.792 129.348 326 C 129.297 326.148 129.412 325.852 129.227 326.365 L 129.095 326.619 C 129.003 326.786 128.903 326.95 128.798 327.106 C 128.294 327.729 127.548 328.148 126.938 328.262 C 126.621 328.336 126.315 328.377 126.059 328.366 C 125.785 328.373 125.514 328.367 125.288 328.326 C 124.315 328.208 123.529 327.933 122.782 327.608 C 122.029 327.292 121.35 326.913 120.684 326.516 C 118.066 324.88 115.826 322.877 113.788 320.682 C 111.745 318.499 109.888 316.127 108.376 313.492 C 107.627 312.171 107.004 310.761 106.545 309.281 C 106.418 308.916 106.328 308.536 106.23 308.159 C 106.125 307.789 106.043 307.396 105.981 306.987 C 105.905 306.577 105.844 306.179 105.824 305.83 L 105.775 305.285 C 105.746 305.011 105.767 304.86 105.762 304.643 C 105.764 304.237 105.755 303.835 105.821 303.415 L 105.898 302.791 L 106.056 302.156 C 106.138 301.732 106.356 301.312 106.532 300.894 C 106.78 300.494 107.007 300.073 107.365 299.734 C 108.022 299.021 108.918 298.506 109.805 298.283 C 110.69 298.046 111.583 297.973 112.415 298.04 C 114.105 298.133 115.634 298.633 117.089 299.229 C 118.542 299.841 119.907 300.606 121.187 301.521 C 122.466 302.44 123.665 303.486 124.678 304.867 C 125.172 305.568 125.657 306.327 125.899 307.373 C 125.963 307.658 125.994 308.034 126.006 308.361 C 126.002 308.617 125.977 308.745 125.964 308.943 C 125.897 309.356 125.901 309.225 125.862 309.392 C 125.828 309.491 125.81 309.572 125.756 309.685 C 125.643 309.909 125.542 310.113 125.33 310.332 C 125.145 310.549 124.896 310.714 124.635 310.849 C 124.401 310.95 124.105 311.042 123.906 311.054 C 123.014 311.131 122.521 310.905 122.059 310.737 C 121.603 310.552 121.23 310.341 120.87 310.123 C 120.158 309.687 119.53 309.216 118.928 308.729 C 117.73 307.754 116.639 306.72 115.597 305.647 C 113.516 303.504 111.619 301.231 109.871 298.854 C 108.129 296.471 106.532 293.987 105.141 291.353 C 103.813 288.691 102.54 285.918 102.278 282.588 C 102.228 281.756 102.257 280.885 102.434 279.993 C 102.489 279.761 102.515 279.568 102.603 279.301 C 102.675 279.067 102.777 278.747 102.833 278.625 L 102.932 278.381 C 102.916 278.412 103.006 278.202 103.024 278.172 L 103.094 278.033 L 103.377 277.479 C 103.55 277.111 103.82 276.744 104.046 276.381 C 104.331 276.026 104.593 275.666 104.949 275.336 C 105.599 274.655 106.534 274.075 107.536 273.771 C 108.543 273.461 109.61 273.439 110.509 273.612 C 111.417 273.773 112.246 274.053 112.965 274.411 C 114.432 275.11 115.654 275.957 116.787 276.858 C 119.055 278.648 120.981 280.616 122.906 282.509 C 124.826 284.404 126.688 286.279 128.643 287.991 C 130.566 289.642 132.709 290.99 134.969 292.11 C 137.227 293.229 139.588 294.117 141.926 294.979 C 146.614 296.689 151.315 298.126 155.772 299.841 C 160.237 301.547 164.446 303.516 168.296 305.914 C 170.235 307.201 171.875 308.743 173.344 310.337 C 174.821 311.928 176.107 313.599 177.273 315.278 C 179.639 318.62 181.431 322.057 182.933 325.349 C 184.449 328.639 185.576 331.842 186.438 334.852 C 187.3 337.862 187.903 340.683 188.262 343.265 C 188.962 348.424 188.719 352.649 187.724 355.404 C 187.534 356.104 187.188 356.674 186.97 357.188 C 186.654 357.683 186.385 358.135 186.155 358.426 C 185.688 358.958 185.447 359.232 185.447 359.232 L 185.418 359.265 L 185.418 359.265 L 185.418 359.265 L 185.418 359.265 Z  M 253.556 260.604 C 253.556 260.604 253.536 260.69 253.501 260.86 C 253.463 261.029 253.419 261.281 253.32 261.616 C 253.139 262.284 252.866 263.281 252.415 264.462 C 252.005 265.675 251.387 267.088 250.623 268.688 C 250.263 269.5 249.823 270.332 249.32 271.187 C 248.832 272.05 248.32 272.962 247.758 273.896 C 247.173 274.813 246.501 275.729 245.813 276.679 C 245.094 277.605 244.443 278.634 243.587 279.545 C 242.767 280.482 241.925 281.445 241.064 282.43 C 240.629 282.916 240.229 283.442 239.753 283.909 C 239.284 284.382 238.811 284.859 238.333 285.342 C 237.388 286.312 236.427 287.298 235.453 288.296 C 234.502 289.258 233.54 290.231 232.569 291.213 C 231.68 292.224 230.786 293.212 229.916 294.266 C 229.089 295.363 228.202 296.425 227.409 297.558 C 226.617 298.691 225.782 299.801 225.068 300.983 L 223.95 302.728 C 223.582 303.31 223.27 303.922 222.934 304.519 C 222.605 305.119 222.277 305.719 221.951 306.314 C 221.656 306.925 221.372 307.538 221.096 308.151 C 220.502 309.359 220.067 310.615 219.628 311.844 C 218.75 314.305 218.292 316.8 217.948 319.145 C 217.644 321.5 217.443 323.716 217.336 325.759 C 217.217 326.78 217.291 327.757 217.277 328.688 C 217.277 329.152 217.26 329.607 217.274 330.047 C 217.311 330.484 217.346 330.908 217.381 331.32 C 217.438 332.982 217.716 334.393 217.89 335.573 C 217.95 336.172 218.091 336.682 218.203 337.13 C 218.314 337.58 218.408 337.964 218.484 338.274 C 218.624 338.904 218.698 339.241 218.698 339.241 L 218.724 339.357 C 218.841 339.887 218.506 340.411 217.977 340.528 C 217.509 340.631 217.046 340.383 216.863 339.958 C 216.863 339.958 216.718 339.621 216.445 338.989 C 216.315 338.668 216.155 338.272 215.967 337.808 C 215.779 337.341 215.541 336.808 215.395 336.18 C 215.231 335.554 215.049 334.86 214.852 334.106 C 214.634 333.351 214.587 332.511 214.436 331.621 C 214.378 331.175 214.318 330.714 214.256 330.238 C 214.219 329.764 214.212 329.273 214.188 328.771 C 214.175 327.765 214.09 326.701 214.192 325.604 C 214.281 323.4 214.652 321.037 215.29 318.615 C 215.917 316.189 216.772 313.707 217.673 311.162 C 218.132 309.891 218.578 308.591 219.13 307.314 C 219.396 306.672 219.657 306.022 219.91 305.364 C 220.202 304.724 220.496 304.08 220.791 303.434 C 221.097 302.793 221.369 302.13 221.696 301.492 C 222.03 300.857 222.364 300.221 222.699 299.582 C 223.337 298.284 224.158 297.087 224.909 295.845 C 225.276 295.217 225.698 294.626 226.133 294.046 L 227.419 292.291 C 228.314 291.145 229.28 290.02 230.209 288.918 C 232.117 286.899 233.994 284.913 235.811 282.991 C 236.714 282.054 237.566 281.099 238.308 280.087 C 239.067 279.093 239.809 278.119 240.532 277.172 C 241.282 276.248 241.875 275.248 242.513 274.33 C 243.138 273.402 243.777 272.532 244.373 271.684 C 245.464 269.926 246.611 268.393 247.47 266.944 C 247.906 266.224 248.336 265.559 248.733 264.941 C 249.128 264.323 249.449 263.737 249.769 263.219 C 250.414 262.175 250.871 261.363 251.2 260.806 C 251.536 260.252 251.707 259.922 251.706 259.922 C 251.958 259.436 252.558 259.244 253.044 259.496 C 253.45 259.706 253.65 260.157 253.56 260.584 L 253.556 260.604 Z " fill-rule="evenodd" fill="rgb(255,255,255)"/></g></svg>